HIERARCHY
ROOT Hips
{
    OFFSET 0.000000 0.000000 0.000000
    CHANNELS 6 Xposition Yposition Zposition Zrotation Xrotation Yrotation
    JOINT Spine
    {
        OFFSET -0.000000 7.897928 0.000000
        CHANNELS 3 Zrotation Xrotation Yrotation
        JOINT Spine1
        {
            OFFSET -0.000000 22.881742 0.000000
            CHANNELS 3 Zrotation Xrotation Yrotation
            JOINT Neck
            {
                OFFSET -0.000000 22.787771 2.071616
                CHANNELS 3 Zrotation Xrotation Yrotation
                JOINT Head
                {
                    OFFSET -0.000000 13.484266 -1.926324
                    CHANNELS 3 Zrotation Xrotation Yrotation
                    End Site
                    {
                        OFFSET -0.000000 24.079046 0.000000
                    }
                }
            }
            JOINT LeftShoulder
            {
                OFFSET 3.854963 21.096247 -0.110468
                CHANNELS 3 Zrotation Xrotation Yrotation
                JOINT LeftArm
                {
                    OFFSET 10.572188 0.000000 0.000000
                    CHANNELS 3 Zrotation Xrotation Yrotation
                    JOINT LeftForeArm
                    {
                        OFFSET 34.932854 0.000000 0.000000
                        CHANNELS 3 Zrotation Xrotation Yrotation
                        JOINT LeftHand
                        {
                            OFFSET 23.279285 0.000000 0.000000
                            CHANNELS 3 Zrotation Xrotation Yrotation
                            End Site
                            {
                                OFFSET 14.447429 0.000000 0.000000
                            }
                        }
                    }
                }
            }
            JOINT RightShoulder
            {
                OFFSET -3.825334 21.096247 -0.110468
                CHANNELS 3 Zrotation Xrotation Yrotation
                JOINT RightArm
                {
                    OFFSET -10.572188 0.000000 0.000000
                    CHANNELS 3 Zrotation Xrotation Yrotation
                    JOINT RightForeArm
                    {
                        OFFSET -34.932854 0.000000 0.000000
                        CHANNELS 3 Zrotation Xrotation Yrotation
                        JOINT RightHand
                        {
                            OFFSET -23.279285 0.000000 0.000000
                            CHANNELS 3 Zrotation Xrotation Yrotation
                            End Site
                            {
                                OFFSET -14.447429 0.000000 0.000000
                            }
                        }
                    }
                }
            }
        }
    }
    JOINT LeftUpLeg
    {
        OFFSET 9.631618 0.000000 0.000000
        CHANNELS 3 Zrotation Xrotation Yrotation
        JOINT LeftLeg
        {
            OFFSET -0.000000 -35.385456 0.000000
            CHANNELS 3 Zrotation Xrotation Yrotation
            JOINT LeftFoot
            {
                OFFSET -0.000000 -43.284000 0.000000
                CHANNELS 3 Zrotation Xrotation Yrotation
                JOINT LeftToeBase
                {
                    OFFSET -0.000000 -6.260552 14.447429
                    CHANNELS 3 Zrotation Xrotation Yrotation
                    End Site
                    {
                        OFFSET -0.000000 0.000000 3.852648
                    }
                }
            }
        }
    }
    JOINT RightUpLeg
    {
        OFFSET -9.631618 0.000000 0.000000
        CHANNELS 3 Zrotation Xrotation Yrotation
        JOINT RightLeg
        {
            OFFSET -0.000000 -35.385456 0.000000
            CHANNELS 3 Zrotation Xrotation Yrotation
            JOINT RightFoot
            {
                OFFSET -0.000000 -43.284000 0.000000
                CHANNELS 3 Zrotation Xrotation Yrotation
                JOINT RightToeBase
                {
                    OFFSET -0.000000 -6.260552 14.447429
                    CHANNELS 3 Zrotation Xrotation Yrotation
                    End Site
                    {
                        OFFSET -0.000000 0.000000 3.852648
                    }
                }
            }
        }
    }
}
MOTION
Frames:    9
Frame Time:    0.008333
41.076687    130.555801    30.812572    -3.385768    -3.370937    83.305603    -0.958302    -4.658532    -0.442940    5.528294    7.501579    -0.766835    -0.613247    13.060821    -8.596066    4.494007    5.618587    -8.512499    -4.799743    13.321389    5.497457    -47.910915    55.257854    -19.124268    2.658586    -21.016016    -40.531174    -4.894168    -20.556164    11.423721    -0.083278    12.640402    6.460574    47.362141    57.230778    19.725462    5.922794    -27.953753    22.898354    -1.193212    -29.010830    0.193345    4.991610    -7.150710    2.066864    -5.153515    15.726329    -15.123287    11.368678    -6.195145    18.951876    0.000000    0.000000    0.000000    -0.290240    -15.602033    -2.089843    5.916887    24.516649    0.938168    -1.459684    -8.341722    -3.069966    0.000000    0.000000    0.000000    
41.293736    130.591644    30.877464    -3.256952    -3.249515    83.196037    -1.066299    -4.769578    -0.256770    5.497531    7.465496    -0.571619    -0.557896    13.113431    -8.712269    4.522099    5.615494    -8.632830    -4.796114    13.365181    5.517689    -48.084316    55.309216    -19.245337    2.285787    -21.123161    -40.088383    -4.861950    -20.803997    11.553375    0.039870    12.568869    6.412242    47.079823    57.440113    20.050241    5.990983    -28.264389    22.966562    -1.643597    -29.334684    0.223125    4.842701    -6.774726    2.043952    -5.111065    15.530102    -15.153302    11.227037    -6.177469    19.098621    0.000000    0.000000    0.000000    -0.191877    -14.969048    -2.106030    5.622455    23.835768    1.273170    -1.995800    -8.278752    -3.231301    0.000000    0.000000    0.000000    
41.532490    130.634552    30.960400    -3.131880    -3.151660    83.286316    -1.220324    -4.978756    -0.230257    5.641087    7.578591    -0.551425    -0.714340    12.972704    -8.763812    4.566505    5.824615    -8.685287    -4.958467    13.339709    5.621475    -48.167099    55.436577    -19.317554    1.929544    -21.163918    -39.694523    -4.644746    -20.955574    11.626904    -0.091142    12.492849    6.439008    46.728207    57.658134    20.630611    6.219305    -28.653553    23.117493    -2.741036    -29.762592    -0.110402    4.703119    -6.413307    1.869256    -5.044687    15.331901    -15.157228    11.019342    -6.205306    19.171127    0.000000    0.000000    0.000000    -0.107006    -14.269353    -2.318342    5.354238    23.125772    1.740221    -2.611352    -8.211312    -3.612896    0.000000    0.000000    0.000000    
41.761417    130.682861    31.052988    -2.972979    -3.103023    83.380997    -1.241075    -5.071978    -0.241319    5.640129    7.588312    -0.560862    -0.944021    12.895341    -8.736991    4.739923    5.982428    -8.640325    -5.104566    13.276849    5.823062    -48.260036    55.737724    -19.245754    1.599984    -21.447281    -39.490406    -4.237394    -21.323673    11.890034    -0.209459    12.492638    6.534718    46.401817    57.800274    21.243992    6.203266    -28.765335    23.144939    -3.017814    -29.867668    -0.275081    4.659940    -5.982090    1.750199    -5.032810    15.085281    -15.192484    10.800861    -6.241920    19.218288    0.000000    0.000000    0.000000    0.040848    -13.567852    -2.329753    5.175631    22.453636    1.878180    -3.247624    -8.111480    -3.928080    0.000000    0.000000    0.000000    
41.975605    130.729980    31.122404    -2.841415    -3.018025    83.362152    -1.201965    -5.101877    -0.122774    5.393647    7.417534    -0.418775    -0.894481    12.908824    -8.813747    4.925540    6.135680    -8.712012    -5.002633    13.357095    5.839586    -48.375519    55.838554    -19.348032    1.268097    -21.531425    -39.050163    -3.638683    -21.477163    12.271471    0.074262    12.517828    6.452814    45.833797    58.144054    21.797808    6.017103    -28.886297    23.085987    -2.452724    -29.958443    0.040731    4.517172    -5.674528    1.698274    -4.903308    15.029560    -15.108813    10.487798    -6.392037    19.204081    0.000000    0.000000    0.000000    0.160108    -13.005488    -2.367647    4.954793    21.999804    2.557188    -4.043786    -8.079463    -4.637684    0.000000    0.000000    0.000000    
42.139107    130.775238    31.179466    -2.755946    -2.886158    83.107910    -1.162022    -5.229334    0.072063    5.131587    7.470343    -0.209972    -0.803499    12.809804    -8.804447    4.900183    6.161402    -8.707790    -4.887371    13.499131    6.040089    -48.149540    55.945103    -19.852921    0.862853    -21.672909    -38.806335    -2.700347    -21.672102    12.799647    0.116881    12.433266    6.502486    45.441116    58.359322    22.394449    6.146854    -28.978785    23.380228    -3.166621    -30.078875    -0.317545    4.378920    -5.387625    1.912810    -4.796194    14.959869    -15.057407    10.088594    -6.560061    19.179583    0.000000    0.000000    0.000000    0.277009    -12.649711    -2.172639    4.748866    21.694288    2.960557    -4.615376    -7.993114    -5.035828    0.000000    0.000000    0.000000    
42.367821    130.821594    31.281382    -2.625114    -2.871301    83.332031    -1.168837    -5.436625    0.020493    5.077775    7.645890    -0.263552    -0.694056    12.822701    -8.801100    4.778681    5.985961    -8.711252    -4.874810    13.473157    6.221771    -47.960999    56.189785    -20.163641    0.593612    -21.765915    -38.578026    -2.105880    -21.798820    13.168165    0.081280    12.376690    6.514907    45.002544    58.603966    23.065868    6.137502    -29.034958    23.595991    -3.486061    -30.135286    -0.589308    4.413116    -5.084440    1.585547    -4.839383    14.884382    -14.985306    9.807805    -6.675206    19.176332    0.000000    0.000000    0.000000    0.427314    -12.018006    -2.351202    4.582702    21.208941    3.402550    -4.982615    -7.926254    -5.603996    0.000000    0.000000    0.000000    
42.499622    130.880051    31.341660    -2.529712    -2.768670    82.988655    -1.184204    -5.491040    0.271578    5.006567    7.725431    -0.009881    -0.811787    12.385464    -8.919707    4.826398    6.412220    -8.841658    -4.793585    13.116821    6.205775    -48.318161    56.536320    -19.850441    0.400517    -21.820986    -38.423866    -1.501152    -21.855917    13.456028    -0.158166    12.226142    6.479435    44.748356    58.874413    23.715405    6.086670    -28.938316    23.807402    -3.434121    -30.035248    -0.804443    4.388463    -4.800232    1.864249    -4.851242    14.825756    -14.948708    9.482059    -6.698680    19.136032    0.000000    0.000000    0.000000    0.554066    -11.733533    -1.961761    4.465509    20.980053    3.668090    -5.477268    -7.700047    -6.161020    0.000000    0.000000    0.000000    
42.655869    130.928375    31.401661    -2.455849    -2.700221    82.959595    -1.103683    -5.386088    0.324487    4.790606    7.228960    0.073572    -0.768299    12.938375    -8.846812    4.916151    5.927954    -8.742528    -4.901873    13.254882    6.153059    -48.526943    56.561947    -19.520647    0.237505    -21.812155    -38.078396    -0.974828    -21.845270    13.748735    0.013770    12.426791    6.760568    44.569183    58.941902    23.853657    6.136744    -28.777397    24.112938    -3.576738    -29.893890    -1.002064    4.392642    -4.571313    1.762312    -4.914184    14.725526    -14.876208    9.240580    -6.609790    19.104057    0.000000    0.000000    0.000000    0.620680    -11.339855    -1.870524    4.380697    20.609390    3.759906    -5.760116    -7.615526    -6.296466    0.000000    0.000000    0.000000    
